<?xml version="1.0" encoding="utf-8"?>
<!-- Generator: Adobe Illustrator 19.0.0, SVG Export Plug-In . SVG Version: 6.00 Build 0)  -->
<svg version="1.1" id="Layer_1" xmlns="http://www.w3.org/2000/svg" xmlns:xlink="http://www.w3.org/1999/xlink" x="0px" y="0px"
	 viewBox="0 0 403 352" style="enable-background:new 0 0 403 352;" xml:space="preserve">
<style type="text/css">
	.st0{fill:#00E1FF;}
	.st1{fill:#FFFFFF;}
</style>
<g id="XMLID_40_">
	<path id="XMLID_42_" class="st0" d="M292.5,92.6l-50.9,122.3l-25.9-66.2L173,263.2l-28.6-61.7l-21.5,69.8
		c21.4,17.7,48.8,28.3,78.6,28.3c68.2,0,123.5-55.3,123.5-123.5C325,143.8,312.7,114.6,292.5,92.6z"/>
	<path id="XMLID_41_" class="st1" d="M170.8,206.7l44.4-119l27,69l33.1-79.6c-20.6-15.4-46.2-24.5-73.9-24.5
		C133.3,52.5,78,107.8,78,176c0,29.4,10.3,56.4,27.5,77.6l34.8-112.8L170.8,206.7z"/>
</g>
<g id="XMLID_43_">
</g>
<g id="XMLID_44_">
</g>
<g id="XMLID_45_">
</g>
<g id="XMLID_46_">
</g>
<g id="XMLID_47_">
</g>
<g id="XMLID_48_">
</g>
</svg>
